<svg xmlns="http://www.w3.org/2000/svg" xmlns:xlink="http://www.w3.org/1999/xlink" width="1280" zoomAndPan="magnify" viewBox="0 0 960 959.999988" height="1280" preserveAspectRatio="xMidYMid meet" version="1.0"><path fill="#f78012" d="M 875.484375 687.367188 L 611.144531 839.984375 L 282.28125 697.046875 C 253.535156 689.347656 236.476562 659.796875 244.179688 631.050781 C 251.882812 602.304688 281.429688 585.246094 310.175781 592.945312 L 402.488281 617.679688 L 398.160156 610.191406 L 227.292969 314.234375 C 212.410156 288.460938 221.242188 255.503906 247.011719 240.625 C 272.789062 225.742188 305.746094 234.574219 320.625 260.347656 L 410.769531 416.484375 C 395.886719 390.710938 404.71875 357.753906 430.492188 342.875 C 456.265625 327.996094 489.222656 336.824219 504.101562 362.597656 L 523.566406 396.3125 C 508.6875 370.539062 517.519531 337.582031 543.289062 322.703125 L 543.292969 322.703125 C 569.066406 307.824219 602.019531 316.652344 616.902344 342.425781 L 636.363281 376.140625 C 621.484375 350.367188 630.316406 317.410156 656.085938 302.53125 C 681.859375 287.648438 714.816406 296.480469 729.695312 322.253906 L 771.496094 394.648438 L 796.515625 437.984375 L 858.074219 544.605469 Z M 875.484375 687.367188 " fill-opacity="1" fill-rule="nonzero"/><path fill="#f78012" d="M 922.011719 767.402344 L 657.433594 920.15625 L 611.144531 839.984375 L 875.722656 687.230469 Z M 922.011719 767.402344 " fill-opacity="1" fill-rule="nonzero"/><path fill="#f78012" d="M 213.210938 192.75 C 209.519531 192.75 205.933594 190.835938 203.949219 187.410156 L 135.945312 69.605469 C 132.996094 64.496094 134.75 57.964844 139.855469 55.011719 C 144.972656 52.050781 151.488281 53.8125 154.445312 58.925781 L 222.453125 176.726562 C 225.398438 181.839844 223.648438 188.367188 218.542969 191.320312 C 216.859375 192.292969 215.023438 192.75 213.210938 192.75 Z M 168.824219 250.597656 C 173.542969 250.597656 177.855469 247.449219 179.132812 242.675781 C 180.664062 236.980469 177.28125 231.125 171.582031 229.597656 L 40.195312 194.390625 C 34.476562 192.835938 28.644531 196.246094 27.117188 201.941406 C 25.585938 207.636719 28.96875 213.492188 34.667969 215.023438 L 166.054688 250.226562 C 166.984375 250.476562 167.910156 250.597656 168.824219 250.597656 Z M 172.996094 302.957031 L 55.199219 370.960938 C 50.085938 373.914062 48.339844 380.441406 51.289062 385.554688 C 53.269531 388.980469 56.855469 390.894531 60.550781 390.894531 C 62.359375 390.894531 64.195312 390.433594 65.878906 389.464844 L 183.679688 321.460938 C 188.789062 318.507812 190.535156 311.976562 187.589844 306.867188 C 184.628906 301.761719 178.105469 299.992188 172.996094 302.957031 Z M 343.355469 227.617188 C 345.164062 227.617188 347.003906 227.15625 348.683594 226.1875 L 466.480469 158.175781 C 471.59375 155.222656 473.339844 148.695312 470.394531 143.585938 C 467.4375 138.472656 460.890625 136.714844 455.800781 139.671875 L 338.003906 207.683594 C 332.890625 210.636719 331.144531 217.167969 334.09375 222.277344 C 336.074219 225.703125 339.660156 227.617188 343.355469 227.617188 Z M 282.730469 182.863281 C 283.652344 183.113281 284.585938 183.234375 285.5 183.234375 C 290.21875 183.234375 294.53125 180.085938 295.808594 175.3125 L 331.015625 43.929688 C 332.546875 38.234375 329.164062 32.378906 323.464844 30.851562 C 317.75 29.285156 311.910156 32.707031 310.386719 38.402344 L 275.179688 169.785156 C 273.652344 175.476562 277.03125 181.335938 282.730469 182.863281 Z M 927.347656 776.652344 L 662.769531 929.40625 C 661.128906 930.347656 659.285156 930.835938 657.429688 930.835938 C 656.5 930.835938 655.574219 930.710938 654.664062 930.472656 C 651.933594 929.742188 649.597656 927.945312 648.175781 925.496094 L 603.648438 848.371094 L 278.722656 707.140625 C 262.414062 702.5625 248.796875 691.976562 240.3125 677.28125 C 231.6875 662.347656 229.398438 644.949219 233.863281 628.28125 C 243.070312 593.90625 278.578125 573.445312 312.9375 582.628906 L 380.34375 600.695312 L 218.035156 319.574219 C 200.242188 288.738281 210.84375 249.171875 241.667969 231.371094 C 272.488281 213.554688 312.070312 224.179688 329.871094 255.007812 L 396.046875 369.628906 C 400.800781 354.957031 410.777344 341.921875 425.152344 333.621094 C 453.472656 317.273438 489.175781 324.894531 508.585938 350.136719 C 513.425781 334.597656 523.769531 321.636719 537.945312 313.449219 C 552.878906 304.820312 570.265625 302.53125 586.945312 307 C 600.824219 310.722656 612.820312 318.769531 621.414062 329.996094 C 626.074219 315.035156 636.140625 301.710938 650.742188 293.277344 C 650.742188 293.273438 650.742188 293.273438 650.742188 293.273438 C 681.539062 275.492188 721.132812 286.070312 738.945312 316.90625 L 867.324219 539.261719 C 868.042969 540.503906 868.503906 541.878906 868.671875 543.308594 L 885.726562 683.195312 L 931.257812 762.0625 C 934.210938 767.171875 932.457031 773.703125 927.347656 776.652344 Z M 286.539062 687.25 L 610.464844 828.042969 L 864.027344 681.648438 L 847.738281 548.058594 L 720.445312 327.589844 C 708.535156 306.964844 682.074219 299.839844 661.421875 311.777344 C 640.792969 323.6875 633.699219 350.164062 645.609375 370.804688 C 645.707031 370.96875 645.699219 371.152344 645.785156 371.320312 L 676.222656 424.046875 C 679.171875 429.160156 677.421875 435.6875 672.308594 438.640625 C 670.632812 439.609375 668.796875 440.070312 666.980469 440.070312 C 663.289062 440.070312 659.699219 438.15625 657.71875 434.726562 L 610.15625 352.339844 C 610.0625 352.171875 610.070312 351.980469 609.980469 351.8125 L 607.644531 347.765625 C 595.746094 327.132812 569.273438 320.03125 548.625 331.953125 C 538.632812 337.722656 531.476562 347.039062 528.492188 358.183594 C 525.511719 369.316406 527.035156 380.941406 532.78125 390.921875 L 532.8125 390.96875 C 532.863281 391.058594 532.855469 391.160156 532.90625 391.25 L 582.9375 477.90625 C 585.886719 483.015625 584.136719 489.546875 579.027344 492.5 C 577.347656 493.46875 575.511719 493.925781 573.695312 493.925781 C 570.003906 493.925781 566.414062 492.019531 564.433594 488.585938 L 505.828125 387.082031 C 505.777344 386.988281 505.78125 386.886719 505.734375 386.796875 L 494.847656 367.9375 C 482.9375 347.300781 456.464844 340.195312 435.832031 352.125 C 415.210938 364.03125 408.109375 390.472656 419.988281 411.097656 L 420.015625 411.140625 L 489.660156 531.765625 C 492.605469 536.875 490.859375 543.40625 485.746094 546.355469 C 484.070312 547.328125 482.226562 547.785156 480.417969 547.785156 C 476.726562 547.785156 473.136719 545.875 471.15625 542.445312 L 401.511719 421.820312 L 311.367188 265.6875 C 299.457031 245.050781 272.964844 237.960938 252.347656 249.871094 C 231.714844 261.78125 224.625 288.261719 236.535156 308.890625 L 411.734375 612.34375 C 413.890625 616.085938 413.585938 620.757812 410.957031 624.179688 C 408.324219 627.613281 403.894531 629.132812 399.71875 627.996094 L 307.40625 603.257812 C 303.675781 602.257812 299.925781 601.785156 296.234375 601.785156 C 277.15625 601.785156 259.65625 614.53125 254.488281 633.804688 C 251.5 644.953125 253.035156 656.605469 258.808594 666.597656 C 264.574219 676.585938 273.894531 683.742188 285.042969 686.726562 C 285.558594 686.867188 286.054688 687.042969 286.539062 687.25 Z M 907.417969 763.492188 L 871.808594 701.824219 L 625.734375 843.894531 L 661.339844 905.566406 Z M 907.417969 763.492188 " fill-opacity="1" fill-rule="nonzero"/></svg>